<?xml version="1.0" encoding="UTF-8"?>
<svg id="Layer_2" data-name="Layer 2" xmlns="http://www.w3.org/2000/svg" xmlns:xlink="http://www.w3.org/1999/xlink" viewBox="0 0 206.21 437.98">
  <defs>
    <style>
      .cls-1, .cls-2 {
        stroke: #c35058;
      }

      .cls-1, .cls-2, .cls-3, .cls-4, .cls-5, .cls-6, .cls-7, .cls-8, .cls-9 {
        stroke-width: 2px;
      }

      .cls-1, .cls-2, .cls-3, .cls-4, .cls-5, .cls-6, .cls-8, .cls-9 {
        stroke-linecap: round;
      }

      .cls-1, .cls-3, .cls-10, .cls-5, .cls-6, .cls-8 {
        fill: none;
      }

      .cls-1, .cls-3, .cls-5, .cls-6, .cls-7, .cls-8, .cls-9 {
        stroke-miterlimit: 10;
      }

      .cls-11, .cls-12, .cls-13, .cls-10, .cls-14, .cls-15, .cls-16, .cls-17, .cls-18 {
        stroke-width: 0px;
      }

      .cls-11, .cls-7 {
        fill: #ff6d6a;
      }

      .cls-12 {
        fill: #ffd5b0;
      }

      .cls-2, .cls-4 {
        stroke-linejoin: round;
      }

      .cls-2, .cls-18 {
        fill: #c35058;
      }

      .cls-13 {
        fill: #fcfbf6;
      }

      .cls-19 {
        clip-path: url(#clippath-2);
      }

      .cls-20 {
        clip-path: url(#clippath-6);
      }

      .cls-3, .cls-7 {
        stroke: #ff6d6a;
      }

      .cls-14 {
        fill: #fffcdc;
      }

      .cls-21 {
        clip-path: url(#clippath-1);
      }

      .cls-22 {
        clip-path: url(#clippath-4);
      }

      .cls-4, .cls-5 {
        stroke: #4ccbc3;
      }

      .cls-4, .cls-17 {
        fill: #4ccbc3;
      }

      .cls-15 {
        fill: #000;
        isolation: isolate;
        opacity: .1;
      }

      .cls-6, .cls-9 {
        stroke: #566270;
      }

      .cls-23 {
        clip-path: url(#clippath);
      }

      .cls-16 {
        fill: #995014;
      }

      .cls-24 {
        clip-path: url(#clippath-3);
      }

      .cls-25 {
        clip-path: url(#clippath-5);
      }

      .cls-8 {
        stroke: #995014;
      }

      .cls-9 {
        fill: #566270;
      }
    </style>
    <clipPath id="clippath">
      <path class="cls-10" d="M84,58.47c-8.9-3.58-17.57-5.25-31.23,1.42-13.66,6.67-19,22.51-17,45.92,2,23.41,4.98,42.08-1.51,48.41-6.49,6.33-16.82,4.33-16.82,4.33,0,0,16,20,37,21.67,21,1.67,35.88-3,40.11-11.33,4.23-8.33,1.56-57-5.77-73s-4.77-37.42-4.77-37.42h-.01Z"/>
    </clipPath>
    <clipPath id="clippath-1">
      <path class="cls-10" d="M102.73,130.07c3.82-2.81,7.68-4.9,11.65,0,3.96,4.9,19.96,34.4,23.46,39.9s-13.25,16-21.25,0-17.17-37.47-13.86-39.9Z"/>
    </clipPath>
    <clipPath id="clippath-2">
      <path class="cls-10" d="M126.35,291.22c.25,4.5,6.75,37,9.5,46.25s8.75,40.81,15.75,50.03,14.25,14.95,18.5,17.46c4.25,2.51,12.25,5.02,7.25,9.89-5,4.87-20.25,4.51-23.25,1.19-3-3.32-3.25-5.28-9.25-6.55-6-1.27-10-6.87-7.5-11.95,2.5-5.08.29-15.33-3.6-19.83s-23.15-35.25-24.4-46.25-.5-29.25-2-36,9-7.75,13.5-8.5,5.5,4.25,5.5,4.25h0Z"/>
    </clipPath>
    <clipPath id="clippath-3">
      <path class="cls-10" d="M95.35,297.22c-5.75,21.25-15.33,34.7-20.85,42.62-5.52,7.92-26.47,32.27-29.32,43.49-2.85,11.22-3.33,21.12-1.22,25.59,4.53,9.63,5.06,12.54-1.86,11.66-6.92-.88-15-4.54-15.25-13.6-.12-4.47-.33-9.74-3.07-15.22-2.74-5.48-.86-12.1,4.67-13.31,5.53-1.21,12.17-9.32,13.26-15.17s12.27-41.06,20.97-47.9c11.32-8.9,5.33-23.1,9.67-28.48,4.34-5.38,12.61-5.48,16-2.42,3.39,3.05,7,12.75,7,12.75h0Z"/>
    </clipPath>
    <clipPath id="clippath-4">
      <path class="cls-10" d="M74.01,208.83c-5.17,3.65-11.92,16.9-13.17,26.15s-.73,30.85-23.5,43.75c-10.89,6.17,10,20.75,34.25,23.25s57.25,1.5,65.25-3.5-3-42.5-8.5-60.75-11.25-24.29-16.25-28.9-38.08,0-38.08,0Z"/>
    </clipPath>
    <clipPath id="clippath-5">
      <path class="cls-10" d="M81.85,113.47c1,3,4,17.5,8,18.75s11.5-2.5,14.25-2.25,5.5,11,8.5,15.75,9.75,7.75,10.5,14.25-4.25,12.5-5.75,16.25-3.5,8.25-1.25,13.75,5.75,6.25,4,10.75-9.25,7.5-25,8-27.75-.5-25-9.5,4.5-23,3-27.25-10-30.5-6.25-32.75,9.25-4.25,9.75-6.5-6-16-6-16l11.25-3.25Z"/>
    </clipPath>
    <clipPath id="clippath-6">
      <path class="cls-10" d="M65.9,135.22c-6.65,0-7.3,14.25-3.3,24.5,4,10.25,12,25,13,29.75s3.91,7.87,6,10.17c2.09,2.3,26.08,37.08,27.54,42.83s-.56,20.63,4.19,23.63,11.84-.42,13.09,1.08,6.68,4.03,10.93,3.78,7.75-2.5,8-3.25-6.61.04-9.5-2.25-8-6.75-7-9.25,3.25-.75,7.5.25,6.88-1.25,7.69-3.25-2.1-.61-7.69-3-6.5-6.25-11-7-9.43-3-10.96-10.5c-1.54-7.5-12.54-35.5-19.04-43.5s-14-31.25-16-39-6.64-15-13.45-15h0Z"/>
    </clipPath>
  </defs>
  <g id="Layer_2-2" data-name="Layer 2">
    <g id="OBJECTS">
      <g>
        <path class="cls-15" d="M198.1,414.34c0,13.06-44.35,23.64-99.05,23.64S0,427.39,0,414.34s44.35-23.64,99.05-23.64,99.05,10.58,99.05,23.64h0Z"/>
        <g>
          <path class="cls-16" d="M84,58.47c-8.9-3.58-17.57-5.25-31.23,1.42-13.66,6.67-19,22.51-17,45.92,2,23.41,4.98,42.08-1.51,48.41s-16.82,4.33-16.82,4.33c0,0,16,20,37,21.67s35.88-3,40.11-11.33c4.23-8.33,1.56-57-5.77-73s-4.77-37.42-4.77-37.42h-.01Z"/>
          <g class="cls-23">
            <path class="cls-15" d="M44.89,110.49c3.34,6.24,13.21,11.38,13.61,18.49.42,7.57-6.49,16.43-6.5,24.97,0,10.19,2.38,21.38,9.6,29,13.56,14.3,31.52,7.93,40.53-8.48,13.49-24.55,12.87-61.29,8.08-87.96-4.92-27.42-24.69-56.46-55.76-36.06-17.28,11.35-18.39,43.53-9.56,60.03h0Z"/>
          </g>
        </g>
        <g>
          <path class="cls-12" d="M102.73,130.07c3.82-2.81,7.68-4.9,11.65,0,3.96,4.9,19.96,34.4,23.46,39.9s-13.25,16-21.25,0-17.17-37.47-13.86-39.9h0Z"/>
          <g class="cls-21">
            <path class="cls-15" d="M112,124.48c-5.24,16,12.08,25.96,19.62,33.86,4.7,4.92,9.07,17.08,6.5,23.64-7.9,20.18-34.43-5.58-38.61-15.89-4.47-11.04-8.3-20.74-4-32.23,2.04-5.44,6.47-14.51,13.49-10.38l3,1h0Z"/>
          </g>
        </g>
        <g>
          <path class="cls-12" d="M126.35,291.22c.25,4.5,6.75,37,9.5,46.25s8.75,40.81,15.75,50.03,14.25,14.95,18.5,17.46,12.25,5.02,7.25,9.89-20.25,4.51-23.25,1.19-3.25-5.28-9.25-6.55-10-6.87-7.5-11.95c2.5-5.08.29-15.33-3.6-19.83s-23.15-35.25-24.4-46.25-.5-29.25-2-36,9-7.75,13.5-8.5,5.5,4.25,5.5,4.25h0Z"/>
          <g class="cls-19">
            <g>
              <path class="cls-18" d="M146.36,402.48c3.53,2.65,8.72,6.53,13.24,6.74,4.12.19,7.37-3.56,11.24-4.81,5.94-1.92,13.32,3.56,12.7,10.06-1.64,17.22-24.43,12.63-34.96,9-6.55-2.26-14.29-5.59-16.19-12.99-.9-3.51-1.86-11.78,1.76-14.13,4.49-2.91,9.16,3.86,12.2,6.14h0Z"/>
              <path class="cls-15" d="M99.5,323.48c7.64-3.32,14.15-8.89,22.97-10.01,10.33-1.31,15.28,2.4,13.66-11.46-1.6-13.77-11.66-26.25-27.15-20.16-15.09,5.93-9.12,24.14-7.99,36.14l-1.5,5.5h0Z"/>
            </g>
          </g>
        </g>
        <g>
          <path class="cls-12" d="M95.35,297.22c-5.75,21.25-15.33,34.7-20.85,42.62-5.52,7.92-26.47,32.27-29.32,43.49s-3.33,21.12-1.22,25.59c4.53,9.63,5.06,12.54-1.86,11.66-6.92-.88-15-4.54-15.25-13.6-.12-4.47-.33-9.74-3.07-15.22s-.86-12.1,4.67-13.31,12.17-9.32,13.26-15.17,12.27-41.06,20.97-47.9c11.32-8.9,5.33-23.1,9.67-28.48,4.34-5.38,12.61-5.48,16-2.42,3.39,3.05,7,12.75,7,12.75h0Z"/>
          <g class="cls-24">
            <g>
              <path class="cls-18" d="M30.2,388.57c.13,4.41.32,10.89,2.98,14.56,2.42,3.34,3.41,7.7,10.77,5.8,6.05-1.56,11.14,10.94.05,16.2-15.63,7.42-25.1-11.24-28.83-21.74-2.31-6.53-4.53-14.66.07-20.75,2.19-2.89,8.05-8.8,12.15-7.43,5.08,1.7,2.69,9.57,2.8,13.37h.01Z"/>
              <path class="cls-15" d="M82.03,313.36c8.21,5.55,12.77,10.03,18.1-2.28,5.66-13.1-1.98-27.89-15.33-32.25-11.91-3.88-22.61-.09-26.81,11.77-8.01,22.6,11.17,14.04,24.05,22.75h0Z"/>
            </g>
          </g>
        </g>
        <g>
          <path class="cls-11" d="M74.01,208.83c-5.17,3.65-11.92,16.9-13.17,26.15s-.73,30.85-23.5,43.75c-10.89,6.17,10,20.75,34.25,23.25s57.25,1.5,65.25-3.5-3-42.5-8.5-60.75-11.25-24.29-16.25-28.9-38.08,0-38.08,0Z"/>
          <g class="cls-22">
            <path class="cls-15" d="M76.39,246.86c-5.56,19.81-10.34,54.04-36.4,57.75-14.81,2.11-24.15-10.85-19.38-24.64,2.97-8.59,11.55-13.36,16.89-20.35,6.69-8.76,8.94-19.95,13-30.03,6.43-15.97,11.46-30.13,30.11-33.1,8.33-1.33,45.26,1.14,35.26,15.44-4.39,6.28-18.25,9.13-24.61,13.79-7.34,5.37-12.4,12.34-14.87,21.15h0Z"/>
          </g>
        </g>
        <path class="cls-18" d="M75.85,202.97c-1.17,4.25-3.5,7,0,8.75s12,2.28,23,1.5c3.95-.28,12.21-1.39,14.52-4.04,2.47-2.84-.25-7.8-.77-8.96-1-2.25-36.75,2.75-36.75,2.75Z"/>
        <g>
          <path class="cls-11" d="M81.85,113.47c1,3,4,17.5,8,18.75s11.5-2.5,14.25-2.25,5.5,11,8.5,15.75,9.75,7.75,10.5,14.25-4.25,12.5-5.75,16.25-3.5,8.25-1.25,13.75,5.75,6.25,4,10.75-9.25,7.5-25,8-27.75-.5-25-9.5,4.5-23,3-27.25-10-30.5-6.25-32.75,9.25-4.25,9.75-6.5-6-16-6-16c0,0,11.25-3.25,11.25-3.25Z"/>
          <g class="cls-25">
            <g>
              <path class="cls-18" d="M79.41,144.47c1.82,3.99,3.01,8.16,7.44,9.69,3.75,1.3,10.22,1.32,12.94-2.26,2.37-3.11,1.14-9.99.07-13.44-1.15-3.71-2.9-7.11-4.45-10.68-2.51-5.82-4-14.22-9.37-18.27-5.88-4.44-21.08-3.08-23.52,4.69-2.17,6.93,2.16,11.2,6.75,15.36,4.2,3.8,7.82,9.81,10.14,14.91h0Z"/>
              <path class="cls-12" d="M91.58,149.92c14-1.31,2.03-15.18-.3-21.24-1.57-4.09-1.92-8.66-3.62-12.71-2.44-5.82-5.01-6.31-10.81-6.24-5.15.07-10.48.96-10.21,7.18.4,9.06,7.83,13.63,11.63,20.98,3.04,5.88,5.27,12.79,13.31,12.04h0Z"/>
              <path class="cls-15" d="M93.4,114c-3-10.34-19.38-13.66-27.9-9.01-25.99,14.18,37.03,40.46,27.9,9.01Z"/>
              <path class="cls-15" d="M91.64,168.35c7.41,15.17,8.81,12.72,11.99,20.13,2.63,6.14,10.27,18.71,3.89,24.15-6.64,5.66-16.32.68-22.4-.76-5.57-1.32-13.12-1.39-17.74-5.37-8.47-7.27-4.72-23.97-5.34-33.14-.74-11.04-13.43-33.56-.02-41.53,7.17-4.27,16.17.7,20,8.65,5.07,10.51,7.41,23.32,9.64,27.87h-.02Z"/>
            </g>
          </g>
        </g>
        <path class="cls-18" d="M107.6,172.97s.14,3.75-5.55,6.5c-5.7,2.75-7.85,1.5-7.85,1.5,0,0,6.16,3.5,9.66,1.75s3.75-9.75,3.75-9.75h-.01Z"/>
        <path class="cls-12" d="M57.78,101.56c-5.3-.78-9.33,3.98-5.74,7.85,3.59,3.87,11.87,1.55,11.87,1.55,0,0,2,10.63,9,12.02,7,1.39,23.89-1.19,29.05-6.63,5.15-5.44,7.1-14.98,2.67-25.06s-10.32-22.8-14.21-24.9c-3.89-2.1-16.41-1.51-25.4,2.67-8.99,4.19-15.78,7.44-13.4,14.15,2.38,6.7,6.18,18.35,6.18,18.35h-.02Z"/>
        <path class="cls-16" d="M78.6,98.72c.62,2.72-.3,5.26-2.05,5.66-1.75.4-3.68-1.48-4.3-4.21-.62-2.72.3-5.26,2.05-5.66,1.75-.4,3.68,1.48,4.3,4.21Z"/>
        <path class="cls-16" d="M102.81,93c.62,2.72-.3,5.26-2.05,5.66-1.75.4-3.68-1.48-4.3-4.21-.62-2.72.3-5.26,2.05-5.66,1.75-.4,3.68,1.48,4.3,4.21Z"/>
        <path class="cls-8" d="M85.68,107.92c2.12,4.92,9.87,4,9.26-2.11"/>
        <path class="cls-16" d="M66.33,104.79c2.37-.19.38-12.67-1.6-16.34-1.98-3.67-6.08-8.56-6.08-8.56,0,0,10.95,3.75,21.18,3.12,10.23-.63,23.17-3.74,23.17-3.74,0,0-7.35-27.84-32.91-20.39-21.66,6.32-22.95,24.12-19.42,31.33,7.4,15.13,13.29,14.75,15.66,14.57h0Z"/>
        <path class="cls-18" d="M75.09,55.59c-42.66,7.89-26.44,44.43-20.69,46.23s1.22-2.11.79-8.1c-2.43-33.83,32.89-34.19,32.89-34.19,0,0-12.99-3.94-12.99-3.94Z"/>
        <g>
          <path class="cls-2" d="M176.69,159.29v-3.33c0-2.62,1.83-4.81,4.27-5.38-.48-.1-.99-.16-1.5-.16h-45.82c-3.98,0-7.21,3.23-7.21,7.21s3.23,7.21,7.21,7.21h45.82c.52,0,1.02-.06,1.5-.16-2.45-.58-4.27-2.76-4.27-5.38h0Z"/>
          <path class="cls-9" d="M183.54,159.29v-3.33c0-2.62,1.83-4.81,4.27-5.38-.48-.1-.99-.16-1.5-.16h-45.82c-3.98,0-7.21,3.23-7.21,7.21s3.23,7.21,7.21,7.21h45.82c.52,0,1.02-.06,1.5-.16-2.45-.58-4.27-2.76-4.27-5.38h0Z"/>
          <path class="cls-2" d="M189.45,159.29v-3.33c0-2.62,1.83-4.81,4.27-5.38-.48-.1-.99-.16-1.5-.16h-45.82c-3.98,0-7.21,3.23-7.21,7.21s3.23,7.21,7.21,7.21h45.82c.52,0,1.02-.06,1.5-.16-2.45-.58-4.27-2.76-4.27-5.38h0Z"/>
          <path class="cls-14" d="M196.59,159.29v-3.33c0-2.62,1.83-4.81,4.27-5.38-.49-.1-.99-.16-1.5-.16h-45.83c-3.98,0-7.21,3.23-7.21,7.21s3.23,7.21,7.21,7.21h45.83c.52,0,1.02-.06,1.5-.16-2.45-.58-4.27-2.76-4.27-5.38h0Z"/>
          <path class="cls-1" d="M200.86,150.58c-.49-.1-.99-.16-1.5-.16h-45.83c-3.98,0-7.21,3.23-7.21,7.21s3.23,7.21,7.21,7.21h45.83c.52,0,1.02-.06,1.5-.16"/>
        </g>
        <g>
          <path class="cls-4" d="M168.04,241.79v-19.96c0-2.87,2.19-5.21,4.99-5.49-.18-.02-.36-.06-.55-.06h-49.15c-3.06,0-5.54,2.48-5.54,5.54v19.96c0,3.06,2.48,5.54,5.54,5.54h49.15c.19,0,.37-.04.55-.06-2.8-.28-4.99-2.62-4.99-5.49v.02Z"/>
          <path class="cls-9" d="M172.11,241.79v-19.96c0-2.87,2.19-5.21,4.99-5.49-.18-.02-.36-.06-.55-.06h-49.15c-3.06,0-5.54,2.48-5.54,5.54v19.96c0,3.06,2.48,5.54,5.54,5.54h49.15c.19,0,.37-.04.55-.06-2.8-.28-4.99-2.62-4.99-5.49v.02Z"/>
          <path class="cls-4" d="M187.07,241.79v-19.96c0-2.87,2.19-5.21,4.99-5.49-.18-.02-.36-.06-.55-.06h-49.15c-3.06,0-5.54,2.48-5.54,5.54v19.96c0,3.06,2.48,5.54,5.54,5.54h49.15c.19,0,.37-.04.55-.06-2.8-.28-4.99-2.62-4.99-5.49v.02Z"/>
          <path class="cls-13" d="M190.59,241.79v-19.96c0-2.87,2.19-5.21,4.99-5.49-.18-.02-.36-.06-.55-.06h-49.15c-3.06,0-5.54,2.48-5.54,5.54v19.96c0,3.06,2.48,5.54,5.54,5.54h49.15c.19,0,.37-.04.55-.06-2.8-.28-4.99-2.62-4.99-5.49v.02Z"/>
          <path class="cls-5" d="M195.57,216.35c-.18-.02-.36-.06-.55-.06h-49.15c-3.06,0-5.54,2.48-5.54,5.54v19.96c0,3.06,2.48,5.54,5.54,5.54h49.15c.19,0,.37-.04.55-.06"/>
        </g>
        <g>
          <path class="cls-2" d="M162.54,260.16v-6.28c0-2.68,1.9-4.92,4.43-5.43-.36-.07-.73-.11-1.11-.11h-48.41c-3.06,0-5.54,2.48-5.54,5.54v6.28c0,3.06,2.48,5.54,5.54,5.54h48.41c.38,0,.75-.04,1.11-.11-2.53-.51-4.43-2.75-4.43-5.43h0Z"/>
          <path class="cls-9" d="M166.61,260.16v-6.28c0-2.68,1.9-4.92,4.43-5.43-.36-.07-.73-.11-1.11-.11h-48.41c-3.06,0-5.54,2.48-5.54,5.54v6.28c0,3.06,2.48,5.54,5.54,5.54h48.41c.38,0,.75-.04,1.11-.11-2.53-.51-4.43-2.75-4.43-5.43h0Z"/>
          <path class="cls-2" d="M174,260.16v-6.28c0-2.68,1.9-4.92,4.43-5.43-.36-.07-.73-.11-1.11-.11h-48.41c-3.06,0-5.54,2.48-5.54,5.54v6.28c0,3.06,2.48,5.54,5.54,5.54h48.41c.38,0,.75-.04,1.11-.11-2.53-.51-4.43-2.75-4.43-5.43h0Z"/>
          <path class="cls-9" d="M181.02,260.16v-6.28c0-2.68,1.9-4.92,4.43-5.43-.36-.07-.73-.11-1.11-.11h-48.41c-3.06,0-5.54,2.48-5.54,5.54v6.28c0,3.06,2.48,5.54,5.54,5.54h48.41c.38,0,.75-.04,1.11-.11-2.53-.51-4.43-2.75-4.43-5.43h0Z"/>
          <path class="cls-14" d="M187.3,260.16v-6.28c0-2.68,1.9-4.92,4.43-5.43-.36-.07-.73-.11-1.11-.11h-48.41c-3.06,0-5.54,2.48-5.54,5.54v6.28c0,3.06,2.48,5.54,5.54,5.54h48.41c.38,0,.75-.04,1.11-.11-2.53-.51-4.43-2.75-4.43-5.43h0Z"/>
          <path class="cls-6" d="M191.73,248.45c-.36-.07-.73-.11-1.11-.11h-48.41c-3.06,0-5.54,2.48-5.54,5.54v6.28c0,3.06,2.48,5.54,5.54,5.54h48.41c.38,0,.75-.04,1.11-.11"/>
        </g>
        <g>
          <path class="cls-4" d="M167.97,144.08c0-2.3,1.8-4.17,4.07-4.31-.09,0-.18-.03-.28-.03h-54.14c-2.4,0-4.34,1.94-4.34,4.34s1.94,4.34,4.34,4.34h54.14c.1,0,.18-.02.28-.03-2.27-.14-4.07-2.01-4.07-4.31Z"/>
          <path class="cls-13" d="M181.27,144.08c0-2.3,1.8-4.17,4.07-4.31-.09,0-.18-.03-.28-.03h-54.14c-2.4,0-4.34,1.94-4.34,4.34s1.94,4.34,4.34,4.34h54.14c.1,0,.18-.02.28-.03-2.27-.14-4.07-2.01-4.07-4.31Z"/>
          <path class="cls-5" d="M185.34,139.77c-.09,0-.18-.03-.28-.03h-54.14c-2.4,0-4.34,1.94-4.34,4.34s1.94,4.34,4.34,4.34h54.14c.1,0,.18-.02.28-.03"/>
        </g>
        <g>
          <path class="cls-9" d="M140.85,192.34v-19.96c0-2.87-2.19-5.21-4.99-5.49.18-.02.36-.06.55-.06h49.15c3.06,0,5.54,2.48,5.54,5.54v19.96c0,3.06-2.48,5.54-5.54,5.54h-49.15c-.19,0-.37-.04-.55-.06,2.8-.28,4.99-2.62,4.99-5.49v.02Z"/>
          <path class="cls-4" d="M136.79,192.34v-19.96c0-2.87-2.19-5.21-4.99-5.49.18-.02.36-.06.55-.06h49.15c3.06,0,5.54,2.48,5.54,5.54v19.96c0,3.06-2.48,5.54-5.54,5.54h-49.15c-.19,0-.37-.04-.55-.06,2.8-.28,4.99-2.62,4.99-5.49v.02Z"/>
          <path class="cls-9" d="M121.82,192.34v-19.96c0-2.87-4.62-5.54-4.43-5.54h49.15c3.06,0,5.54,2.48,5.54,5.54v19.96c0,3.06-2.48,5.54-5.54,5.54h-49.15c-.19,0,4.43-2.67,4.43-5.54Z"/>
          <path class="cls-13" d="M118.31,192.34v-19.96c0-2.87-2.19-5.21-4.99-5.49.18-.02.36-.06.55-.06h49.15c3.06,0,5.54,2.48,5.54,5.54v19.96c0,3.06-2.48,5.54-5.54,5.54h-49.15c-.19,0-.37-.04-.55-.06,2.8-.28,4.99-2.62,4.99-5.49v.02Z"/>
          <path class="cls-6" d="M113.32,166.89c.18-.02.36-.06.55-.06h49.15c3.06,0,5.54,2.48,5.54,5.54v19.96c0,3.06-2.48,5.54-5.54,5.54h-49.15c-.19,0-.37-.04-.55-.06"/>
        </g>
        <g>
          <path class="cls-7" d="M157.91,208.75v-3.33c0-2.61-1.82-4.79-4.25-5.38.42-.1.85-.17,1.29-.17h44.72c3.06,0,5.54,2.48,5.54,5.54v3.33c0,3.06-2.48,5.54-5.54,5.54h-44.72c-.45,0-.88-.07-1.29-.17,2.43-.58,4.25-2.76,4.25-5.38v.02Z"/>
          <path class="cls-14" d="M112.18,208.75v-3.33c0-2.61-1.82-4.79-4.25-5.38.42-.1.85-.17,1.29-.17h64.67c3.06,0,5.54,2.48,5.54,5.54v3.33c0,3.06-2.48,5.54-5.54,5.54h-64.67c-.45,0-.88-.07-1.29-.17,2.43-.58,4.25-2.76,4.25-5.38v.02Z"/>
          <path class="cls-3" d="M107.93,200.05c.42-.1.85-.17,1.29-.17h64.67c3.06,0,5.54,2.48,5.54,5.54v3.33c0,3.06-2.48,5.54-5.54,5.54h-64.67c-.45,0-.88-.07-1.29-.17"/>
        </g>
        <g>
          <path class="cls-4" d="M135.27,133.57v-15c0-2.07-1.52-3.78-3.5-4.1.33-.04.66-.07,1.01-.07h42.6c4.6,0,8.33,3.73,8.33,8.33v6.66c0,4.6-3.73,8.33-8.33,8.33h-42.6c-.34,0-.68-.03-1.01-.07,1.98-.32,3.5-2.02,3.5-4.1v.02Z"/>
          <path class="cls-9" d="M130.83,133.57v-15c0-2.07-2.84-4.16-2.5-4.16h42.6c4.6,0,8.33,3.73,8.33,8.33v6.66c0,4.6-3.73,8.33-8.33,8.33h-42.6c-.34,0,2.5-2.09,2.5-4.17h0Z"/>
          <path class="cls-14" d="M126.38,133.57v-15c0-2.07-1.52-3.78-3.5-4.1.33-.04.66-.07,1.01-.07h42.6c4.6,0,8.33,3.73,8.33,8.33v6.66c0,4.6-3.73,8.33-8.33,8.33h-42.6c-.34,0-.68-.03-1.01-.07,1.98-.32,3.5-2.02,3.5-4.1v.02Z"/>
          <path class="cls-6" d="M122.88,114.48c.33-.04.66-.07,1.01-.07h42.6c4.6,0,8.33,3.73,8.33,8.33v6.66c0,4.6-3.73,8.33-8.33,8.33h-42.6c-.34,0-.68-.03-1.01-.07"/>
        </g>
        <g>
          <path class="cls-9" d="M140.85,29.23v-6.28c0-2.68-1.9-4.92-4.43-5.43.36-.07.73-.11,1.11-.11h48.41c3.06,0,5.54,2.48,5.54,5.54v6.28c0,3.06-2.48,5.54-5.54,5.54h-48.41c-.38,0-.75-.04-1.11-.11,2.53-.51,4.43-2.75,4.43-5.43Z"/>
          <path class="cls-2" d="M136.78,29.23v-6.28c0-2.68-1.9-4.92-4.43-5.43.36-.07.73-.11,1.11-.11h48.41c3.06,0,5.54,2.48,5.54,5.54v6.28c0,3.06-2.48,5.54-5.54,5.54h-48.41c-.38,0-.75-.04-1.11-.11,2.53-.51,4.43-2.75,4.43-5.43Z"/>
          <path class="cls-2" d="M129.39,29.23v-6.28c0-2.68-1.9-4.92-4.43-5.43.36-.07.73-.11,1.11-.11h48.41c3.06,0,5.54,2.48,5.54,5.54v6.28c0,3.06-2.48,5.54-5.54,5.54h-48.41c-.38,0-.75-.04-1.11-.11,2.53-.51,4.43-2.75,4.43-5.43h0Z"/>
          <path class="cls-9" d="M122.37,29.23v-6.28c0-2.68-1.9-4.92-4.43-5.43.36-.07.73-.11,1.11-.11h48.41c3.06,0,5.54,2.48,5.54,5.54v6.28c0,3.06-2.48,5.54-5.54,5.54h-48.41c-.38,0-.75-.04-1.11-.11,2.53-.51,4.43-2.75,4.43-5.43Z"/>
          <path class="cls-14" d="M116.08,29.23v-6.28c0-2.68-1.9-4.92-4.43-5.43.36-.07.73-.11,1.11-.11h48.41c3.06,0,5.54,2.48,5.54,5.54v6.28c0,3.06-2.48,5.54-5.54,5.54h-48.41c-.38,0-.75-.04-1.11-.11,2.53-.51,4.43-2.75,4.43-5.43Z"/>
          <path class="cls-6" d="M111.65,17.51c.36-.07.73-.11,1.11-.11h48.41c3.06,0,5.54,2.48,5.54,5.54v6.28c0,3.06-2.48,5.54-5.54,5.54h-48.41c-.38,0-.75-.04-1.11-.11"/>
        </g>
        <g>
          <path class="cls-9" d="M149.61,87.99v-3.33c0-2.61-1.82-4.79-4.25-5.38.42-.1.85-.17,1.29-.17h36.72c3.06,0,5.54,2.48,5.54,5.54v3.33c0,3.06-2.48,5.54-5.54,5.54h-36.72c-.45,0-.88-.07-1.29-.17,2.43-.59,4.25-2.76,4.25-5.38v.02Z"/>
          <path class="cls-14" d="M123.83,87.99v-3.33c0-2.61-1.82-4.79-4.25-5.38.42-.1.85-.17,1.29-.17h36.72c3.06,0,5.54,2.48,5.54,5.54v3.33c0,3.06-2.48,5.54-5.54,5.54h-36.72c-.45,0-.88-.07-1.29-.17,2.43-.59,4.25-2.76,4.25-5.38v.02Z"/>
          <path class="cls-6" d="M119.58,79.29c.42-.1.85-.17,1.29-.17h36.72c3.06,0,5.54,2.48,5.54,5.54v3.33c0,3.06-2.48,5.54-5.54,5.54h-36.72c-.45,0-.88-.07-1.29-.17"/>
        </g>
        <g>
          <path class="cls-2" d="M142.56,61.6v-3.33c0-2.62-1.83-4.81-4.27-5.38.48-.1.99-.16,1.5-.16h45.82c3.98,0,7.21,3.23,7.21,7.21s-3.23,7.21-7.21,7.21h-45.82c-.52,0-1.02-.06-1.5-.16,2.45-.58,4.27-2.76,4.27-5.38h0Z"/>
          <path class="cls-4" d="M135.71,61.6v-3.33c0-2.62-1.83-4.81-4.27-5.38.48-.1.99-.16,1.5-.16h45.82c3.98,0,7.21,3.23,7.21,7.21s-3.23,7.21-7.21,7.21h-45.82c-.52,0-1.02-.06-1.5-.16,2.45-.58,4.27-2.76,4.27-5.38h0Z"/>
          <path class="cls-2" d="M129.8,61.6v-3.33c0-2.62-1.83-4.81-4.27-5.38.48-.1.99-.16,1.5-.16h45.83c3.98,0,7.21,3.23,7.21,7.21s-3.23,7.21-7.21,7.21h-45.83c-.52,0-1.02-.06-1.5-.16,2.45-.58,4.27-2.76,4.27-5.38h0Z"/>
          <path class="cls-14" d="M122.66,61.6v-3.33c0-2.62-1.83-4.81-4.27-5.38.48-.1.99-.16,1.5-.16h45.82c3.98,0,7.21,3.23,7.21,7.21s-3.23,7.21-7.21,7.21h-45.82c-.52,0-1.02-.06-1.5-.16,2.45-.58,4.27-2.76,4.27-5.38h0Z"/>
          <path class="cls-1" d="M118.39,52.89c.48-.1.99-.16,1.5-.16h45.82c3.98,0,7.21,3.23,7.21,7.21s-3.23,7.21-7.21,7.21h-45.82c-.52,0-1.02-.06-1.5-.16"/>
        </g>
        <g>
          <path class="cls-2" d="M164.24,107.36v-6.28c0-2.68,1.9-4.92,4.44-5.43-.36-.07-.73-.11-1.11-.11h-48.41c-3.06,0-5.54,2.48-5.54,5.54v6.28c0,3.06,2.48,5.54,5.54,5.54h48.41c.38,0,.75-.04,1.11-.11-2.53-.51-4.44-2.75-4.44-5.43Z"/>
          <path class="cls-4" d="M168.31,107.36v-6.28c0-2.68,1.9-4.92,4.43-5.43-.36-.07-.73-.11-1.11-.11h-48.41c-3.06,0-5.54,2.48-5.54,5.54v6.28c0,3.06,2.48,5.54,5.54,5.54h48.41c.38,0,.75-.04,1.11-.11-2.53-.51-4.43-2.75-4.43-5.43Z"/>
          <path class="cls-2" d="M175.7,107.36v-6.28c0-2.68,1.9-4.92,4.43-5.43-.36-.07-.73-.11-1.11-.11h-48.41c-3.06,0-5.54,2.48-5.54,5.54v6.28c0,3.06,2.48,5.54,5.54,5.54h48.41c.38,0,.75-.04,1.11-.11-2.53-.51-4.43-2.75-4.43-5.43Z"/>
          <path class="cls-4" d="M182.72,107.36v-6.28c0-2.68,1.9-4.92,4.43-5.43-.36-.07-.73-.11-1.11-.11h-48.41c-3.06,0-5.54,2.48-5.54,5.54v6.28c0,3.06,2.48,5.54,5.54,5.54h48.41c.38,0,.75-.04,1.11-.11-2.53-.51-4.43-2.75-4.43-5.43Z"/>
          <path class="cls-13" d="M189,107.36v-6.28c0-2.68,1.9-4.92,4.43-5.43-.36-.07-.73-.11-1.11-.11h-48.41c-3.06,0-5.54,2.48-5.54,5.54v6.28c0,3.06,2.48,5.54,5.54,5.54h48.41c.38,0,.75-.04,1.11-.11-2.53-.51-4.43-2.75-4.43-5.43Z"/>
          <path class="cls-5" d="M193.44,95.65c-.36-.07-.73-.11-1.11-.11h-48.41c-3.06,0-5.54,2.48-5.54,5.54v6.28c0,3.06,2.48,5.54,5.54,5.54h48.41c.38,0,.75-.04,1.11-.11"/>
        </g>
        <g>
          <path class="cls-4" d="M184.57,73.1c0-2.3,1.8-4.17,4.07-4.31-.09,0-.18-.03-.28-.03h-54.14c-2.4,0-4.34,1.94-4.34,4.34s1.94,4.34,4.34,4.34h54.14c.1,0,.18-.02.28-.03-2.27-.14-4.07-2.01-4.07-4.31Z"/>
          <path class="cls-13" d="M197.87,73.1c0-2.3,1.8-4.17,4.07-4.31-.09,0-.18-.03-.28-.03h-54.14c-2.4,0-4.34,1.94-4.34,4.34s1.94,4.34,4.34,4.34h54.14c.1,0,.18-.02.28-.03-2.27-.14-4.07-2.01-4.07-4.31Z"/>
          <path class="cls-5" d="M201.94,68.78c-.09,0-.18-.03-.28-.03h-54.14c-2.4,0-4.34,1.94-4.34,4.34s1.94,4.34,4.34,4.34h54.14c.1,0,.18-.02.28-.03"/>
        </g>
        <g>
          <path class="cls-7" d="M166.91,45.57v-3.33c0-2.61,1.82-4.79,4.25-5.38-.42-.1-.85-.17-1.29-.17h-44.72c-3.06,0-5.54,2.48-5.54,5.54v3.33c0,3.06,2.48,5.54,5.54,5.54h44.72c.45,0,.88-.07,1.29-.17-2.43-.58-4.25-2.76-4.25-5.38v.02Z"/>
          <path class="cls-13" d="M197.12,45.57v-3.33c0-2.61,1.82-4.79,4.25-5.38-.42-.1-.85-.17-1.29-.17h-49.15c-3.06,0-5.54,2.48-5.54,5.54v3.33c0,3.06,2.48,5.54,5.54,5.54h49.15c.45,0,.88-.07,1.29-.17-2.43-.58-4.25-2.76-4.25-5.38v.02Z"/>
          <path class="cls-3" d="M201.37,36.87c-.42-.1-.85-.17-1.29-.17h-49.15c-3.06,0-5.54,2.48-5.54,5.54v3.33c0,3.06,2.48,5.54,5.54,5.54h49.15c.45,0,.88-.07,1.29-.17"/>
        </g>
        <g>
          <path class="cls-4" d="M141.22,6.53v3.33c0,2.61-1.82,4.79-4.25,5.38.42.1.85.17,1.29.17h61.35c3.06,0,5.54-2.48,5.54-5.54v-3.33c0-3.06-2.48-5.54-5.54-5.54h-61.35c-.45,0-.88.07-1.29.17,2.43.58,4.25,2.76,4.25,5.38v-.02Z"/>
          <path class="cls-13" d="M111.01,6.53v3.33c0,2.61-1.82,4.79-4.25,5.38.42.1.85.17,1.29.17h49.15c3.06,0,5.54-2.48,5.54-5.54v-3.33c0-3.06-2.48-5.54-5.54-5.54h-49.15c-.45,0-.88.07-1.29.17,2.43.58,4.25,2.76,4.25,5.38v-.02Z"/>
          <path class="cls-5" d="M106.76,15.24c.42.1.85.17,1.29.17h49.15c3.06,0,5.54-2.48,5.54-5.54v-3.33c0-3.06-2.48-5.54-5.54-5.54h-49.15c-.45,0-.88.07-1.29.17"/>
        </g>
        <g>
          <path class="cls-12" d="M65.9,135.22c-6.65,0-7.3,14.25-3.3,24.5,4,10.25,12,25,13,29.75s3.91,7.87,6,10.17,26.08,37.08,27.54,42.83-.56,20.63,4.19,23.63,11.84-.42,13.09,1.08,6.68,4.03,10.93,3.78,7.75-2.5,8-3.25-6.61.04-9.5-2.25-8-6.75-7-9.25,3.25-.75,7.5.25,6.88-1.25,7.69-3.25-2.1-.61-7.69-3-6.5-6.25-11-7-9.43-3-10.96-10.5c-1.54-7.5-12.54-35.5-19.04-43.5s-14-31.25-16-39-6.64-15-13.45-15h0Z"/>
          <g class="cls-20">
            <path class="cls-15" d="M69.88,155.98c3.47,8.5,6.52,17.16,10.23,25.5,7.45,16.71,18.58,32.25,27.26,48.01,4.02,7.3,21.47,36.22,16.49,41.86-10.71,12.13-21.79-16.18-24.35-21.74-8.59-18.62-18.85-38.02-30.01-55.26-8.62-13.32-19.84-27.39-20.89-43.85-.33-5.14,3.79-18.5,8.93-20.75,11.22-4.93,9.77,19.95,12.34,26.23h0Z"/>
          </g>
        </g>
        <polygon class="cls-11" points="151.33 126.19 151.33 136.63 148.21 134 145.09 136.63 145.09 126.19 151.33 126.19"/>
        <polygon class="cls-11" points="161.03 221.28 161.03 235.17 157.92 232.67 154.81 235.17 154.81 221.28 161.03 221.28"/>
        <polygon class="cls-18" points="175.08 41.2 175.08 47.09 171.97 44.59 168.86 47.09 168.86 41.2 175.08 41.2"/>
        <polygon class="cls-11" points="177.67 234.22 177.67 244.11 174.55 241.61 171.44 244.11 171.44 234.22 177.67 234.22"/>
        <polygon class="cls-11" points="137.55 187.58 127.02 187.58 133.71 185.14 144.25 185.14 137.55 187.58"/>
        <polygon class="cls-17" points="154.91 33.26 144.38 33.26 151.07 30.83 161.6 30.83 154.91 33.26"/>
        <polygon class="cls-17" points="152.82 192.37 142.29 192.37 148.98 189.93 159.51 189.93 152.82 192.37"/>
      </g>
    </g>
  </g>
</svg>