<?xml version="1.0" encoding="UTF-8"?>
<svg id="Layer_2" data-name="Layer 2" xmlns="http://www.w3.org/2000/svg" xmlns:xlink="http://www.w3.org/1999/xlink" viewBox="0 0 200.43 199.46">
  <defs>
    <style>
      .cls-1, .cls-2, .cls-3, .cls-4, .cls-5, .cls-6, .cls-7 {
        stroke-width: 0px;
      }

      .cls-1, .cls-8 {
        fill: #ff6d6a;
      }

      .cls-9 {
        stroke: #c35058;
      }

      .cls-9, .cls-10, .cls-11, .cls-12, .cls-13, .cls-14, .cls-15 {
        stroke-linecap: round;
      }

      .cls-9, .cls-10, .cls-11, .cls-13, .cls-14, .cls-8, .cls-15 {
        stroke-width: 2px;
      }

      .cls-9, .cls-11, .cls-12 {
        stroke-linejoin: round;
      }

      .cls-9, .cls-7 {
        fill: #c35058;
      }

      .cls-2 {
        fill: #fcfbf6;
      }

      .cls-16 {
        clip-path: url(#clippath-2);
      }

      .cls-10, .cls-4, .cls-12, .cls-13, .cls-14 {
        fill: none;
      }

      .cls-10, .cls-13, .cls-14, .cls-8, .cls-15 {
        stroke-miterlimit: 10;
      }

      .cls-10, .cls-8 {
        stroke: #ff6d6a;
      }

      .cls-3, .cls-15 {
        fill: #566270;
      }

      .cls-5 {
        fill: #fffcdc;
      }

      .cls-17 {
        clip-path: url(#clippath-1);
      }

      .cls-11 {
        fill: #4ccbc3;
      }

      .cls-11, .cls-13 {
        stroke: #4ccbc3;
      }

      .cls-12, .cls-14, .cls-15 {
        stroke: #566270;
      }

      .cls-6 {
        fill: #000;
        isolation: isolate;
        opacity: .1;
      }

      .cls-18 {
        clip-path: url(#clippath);
      }
    </style>
    <clipPath id="clippath">
      <path class="cls-4" d="M119.37,147.9c.19,1.18-.66,2.28-1.9,2.47l-15.4,2.28c-1.24.18-2.41-.62-2.6-1.8l-11.45-69.64c-.19-1.18.66-2.28,1.9-2.47l15.4-2.28c1.24-.19,2.4.62,2.6,1.8l11.45,69.64Z"/>
    </clipPath>
    <clipPath id="clippath-1">
      <path class="cls-4" d="M120.31,150.99c.19,1.09,1.22,1.82,2.31,1.64l7.82-1.33c1.09-.19,1.82-1.22,1.64-2.31l-10.23-60.08c-.19-1.09-1.22-1.82-2.31-1.64l-7.82,1.33c-1.09.19-1.82,1.22-1.64,2.31l10.23,60.08h0Z"/>
    </clipPath>
    <clipPath id="clippath-2">
      <path class="cls-4" d="M136.9,149.99c.37,1.47,1.86,2.37,3.33,2l8.5-2.13c1.47-.37,2.37-1.86,2-3.34l-17.58-70.12c-.37-1.47-1.86-2.37-3.34-2l-8.5,2.13c-1.47.37-2.37,1.86-2,3.34l17.58,70.12h.01Z"/>
    </clipPath>
  </defs>
  <g id="Layer_2-2" data-name="Layer 2">
    <g id="OBJECTS">
      <path class="cls-6" d="M141.1,133.16c-8.67-10.48-36.33-18.15-69.13-18.15C32.22,115.01,0,126.26,0,140.15c0,4.42,3.28,8.58,9.02,12.19-4.32,3.88-6.69,8.11-6.69,12.52,0,19.11,44.35,34.6,99.05,34.6s99.05-15.49,99.05-34.6c0-14.17-24.4-26.35-59.32-31.7h-.01Z"/>
      <g>
        <path class="cls-15" d="M31.27,57.88v3.16c0,2.49-1.83,4.56-4.27,5.11.48.1.99.15,1.5.15h45.82c3.98,0,7.21-3.06,7.21-6.84s-3.23-6.84-7.21-6.84H28.5c-.52,0-1.02.05-1.5.15,2.45.55,4.27,2.62,4.27,5.11h0Z"/>
        <path class="cls-8" d="M24.42,57.88v3.16c0,2.49-1.83,4.56-4.27,5.11.48.1.99.15,1.5.15h45.82c3.98,0,7.21-3.06,7.21-6.84s-3.23-6.84-7.21-6.84H21.65c-.51,0-1.02.05-1.5.15,2.45.55,4.27,2.62,4.27,5.11h0Z"/>
        <path class="cls-15" d="M18.51,57.88v3.16c0,2.49-1.83,4.56-4.28,5.11.49.1.99.15,1.5.15h45.82c3.98,0,7.21-3.06,7.21-6.84s-3.23-6.84-7.21-6.84H15.73c-.52,0-1.02.05-1.5.15,2.45.55,4.28,2.62,4.28,5.11h0Z"/>
        <path class="cls-5" d="M11.37,57.88v3.16c0,2.49-1.83,4.56-4.27,5.11.49.1.99.15,1.5.15h45.83c3.98,0,7.21-3.06,7.21-6.84s-3.22-6.84-7.21-6.84H8.6c-.51,0-1.02.05-1.5.15,2.45.55,4.27,2.62,4.27,5.11h0Z"/>
        <path class="cls-14" d="M7.1,66.14c.49.1.99.15,1.5.15h45.83c3.98,0,7.21-3.06,7.21-6.84s-3.22-6.84-7.21-6.84H8.6c-.51,0-1.02.05-1.5.15"/>
      </g>
      <g>
        <path class="cls-11" d="M44.67,5.07v4.61c0,1.97-1.47,3.61-3.43,3.99.28.05.56.08.86.08h37.47c2.37,0,4.29-1.82,4.29-4.07v-4.61c0-2.25-1.92-4.07-4.29-4.07h-37.47c-.29,0-.58.03-.86.08,1.96.38,3.43,2.02,3.43,3.99h0Z"/>
        <path class="cls-15" d="M41.53,5.07v4.61c0,1.97-1.47,3.61-3.43,3.99.28.05.56.08.86.08h37.47c2.37,0,4.29-1.82,4.29-4.07v-4.61c0-2.25-1.92-4.07-4.29-4.07h-37.47c-.29,0-.58.03-.86.08,1.96.38,3.43,2.02,3.43,3.99Z"/>
        <path class="cls-11" d="M35.81,5.07v4.61c0,1.97-1.47,3.61-3.43,3.99.28.05.56.08.86.08h37.47c2.37,0,4.29-1.82,4.29-4.07v-4.61c0-2.25-1.92-4.07-4.29-4.07h-37.47c-.29,0-.58.03-.86.08,1.96.38,3.43,2.02,3.43,3.99Z"/>
        <path class="cls-15" d="M30.37,5.07v4.61c0,1.97-1.47,3.61-3.43,3.99.28.05.56.08.86.08h37.47c2.37,0,4.29-1.82,4.29-4.07v-4.61c0-2.25-1.92-4.07-4.29-4.07H27.8c-.29,0-.58.03-.86.08,1.96.38,3.43,2.02,3.43,3.99Z"/>
        <path class="cls-2" d="M25.51,5.07v4.61c0,1.97-1.47,3.61-3.43,3.99.28.05.56.08.86.08h37.47c2.37,0,4.29-1.82,4.29-4.07v-4.61c0-2.25-1.92-4.07-4.29-4.07H22.94c-.29,0-.58.03-.86.08,1.96.38,3.43,2.02,3.43,3.99h0Z"/>
        <path class="cls-14" d="M22.08,13.67c.28.05.56.08.86.08h37.47c2.37,0,4.29-1.82,4.29-4.07v-4.61c0-2.25-1.92-4.07-4.29-4.07H22.94c-.29,0-.58.03-.86.08"/>
      </g>
      <g>
        <path class="cls-11" d="M33.17,72.41c0,2.18-1.8,3.95-4.07,4.09.09,0,.18.03.28.03h54.14c2.4,0,4.34-1.84,4.34-4.12s-1.94-4.12-4.34-4.12H29.38c-.09,0-.18.02-.28.03,2.27.14,4.07,1.91,4.07,4.09h0Z"/>
        <path class="cls-2" d="M19.86,72.41c0,2.18-1.8,3.95-4.07,4.09.09,0,.18.03.28.03h54.14c2.4,0,4.34-1.84,4.34-4.12s-1.94-4.12-4.34-4.12H16.07c-.1,0-.18.02-.28.03,2.27.14,4.07,1.91,4.07,4.09h0Z"/>
        <path class="cls-13" d="M15.8,76.51c.09,0,.18.03.28.03h54.14c2.4,0,4.34-1.84,4.34-4.12s-1.94-4.12-4.34-4.12H16.08c-.1,0-.18.02-.28.03"/>
      </g>
      <g>
        <path class="cls-8" d="M67.79,34.76v12.41c0,1.79,1.44,3.24,3.27,3.41-.12.01-.24.04-.36.04H22.48c-2.01,0-3.63-1.54-3.63-3.45v-12.41c0-1.9,1.63-3.45,3.63-3.45h48.22c.13,0,.24.02.36.03-1.83.17-3.27,1.63-3.27,3.41h0Z"/>
        <path class="cls-11" d="M70.46,34.76v12.41c0,1.79,1.44,3.24,3.27,3.41-.12.01-.24.04-.36.04H25.15c-2.01,0-3.63-1.54-3.63-3.45v-12.41c0-1.9,1.63-3.45,3.63-3.45h48.22c.13,0,.24.02.36.03-1.83.17-3.27,1.63-3.27,3.41h0Z"/>
        <path class="cls-8" d="M80.27,34.76v12.41c0,1.79,1.44,3.24,3.27,3.41-.12.01-.24.04-.36.04h-48.22c-2.01,0-3.63-1.54-3.63-3.45v-12.41c0-1.9,1.63-3.45,3.63-3.45h48.22c.12,0,.24.02.36.03-1.83.17-3.27,1.63-3.27,3.41h0Z"/>
        <path class="cls-2" d="M82.57,34.76v12.41c0,1.79,1.44,3.24,3.27,3.41-.12.01-.24.04-.36.04h-48.22c-2.01,0-3.63-1.54-3.63-3.45v-12.41c0-1.9,1.63-3.45,3.63-3.45h48.22c.12,0,.24.02.36.03-1.83.17-3.27,1.63-3.27,3.41h0Z"/>
        <path class="cls-10" d="M85.84,50.59c-.12.01-.24.04-.36.04h-48.22c-2.01,0-3.63-1.54-3.63-3.45v-12.41c0-1.9,1.63-3.45,3.63-3.45h48.22c.12,0,.24.02.36.03"/>
      </g>
      <g>
        <path class="cls-8" d="M54.6,21v3.16c0,2.48,1.82,4.55,4.25,5.1-.42.09-.84.16-1.29.16H12.84c-3.06,0-5.54-2.35-5.54-5.26v-3.16c0-2.91,2.48-5.26,5.54-5.26h44.72c.45,0,.88.06,1.29.16-2.43.56-4.25,2.62-4.25,5.1h0Z"/>
        <path class="cls-5" d="M100.33,21v3.16c0,2.48,1.82,4.55,4.25,5.1-.41.09-.84.16-1.29.16H38.62c-3.06,0-5.54-2.35-5.54-5.26v-3.16c0-2.91,2.48-5.26,5.54-5.26h64.67c.45,0,.88.06,1.29.16-2.43.56-4.25,2.62-4.25,5.1h0Z"/>
        <path class="cls-10" d="M104.58,29.25c-.41.09-.84.16-1.29.16H38.62c-3.06,0-5.54-2.35-5.54-5.26v-3.16c0-2.91,2.48-5.26,5.54-5.26h64.67c.45,0,.88.06,1.29.16"/>
      </g>
      <g>
        <path class="cls-9" d="M55.6,83.79v18.93c0,2.62,2.02,4.77,4.66,5.17-.44.05-.88.08-1.34.08H20.86c-6.12,0-11.09-4.71-11.09-10.52v-8.41c0-5.81,4.96-10.52,11.09-10.52h38.06c.45,0,.9.03,1.34.08-2.64.4-4.66,2.56-4.66,5.17v.02Z"/>
        <path class="cls-15" d="M61.51,83.79v18.93c0,2.62,2.03,4.77,4.66,5.17-.44.05-.88.08-1.34.08H26.77c-6.12,0-11.09-4.71-11.09-10.52v-8.41c0-5.81,4.96-10.52,11.09-10.52h38.06c.45,0,.9.03,1.34.08-2.64.4-4.66,2.56-4.66,5.17v.02Z"/>
        <path class="cls-5" d="M67.42,83.79v18.93c0,2.62,2.02,4.77,4.66,5.17-.44.05-.88.08-1.34.08h-38.06c-6.12,0-11.09-4.71-11.09-10.52v-8.41c0-5.81,4.96-10.52,11.09-10.52h38.06c.45,0,.9.03,1.34.08-2.64.4-4.66,2.56-4.66,5.17v.02Z"/>
        <path class="cls-14" d="M72.08,107.9c-.44.05-.88.08-1.34.08h-38.06c-6.12,0-11.09-4.71-11.09-10.52v-8.41c0-5.81,4.96-10.52,11.09-10.52h38.06c.45,0,.9.03,1.34.08"/>
      </g>
      <g>
        <path class="cls-15" d="M55.48,133.72v3.15c0,2.48,1.81,4.55,4.25,5.1-.42.09-.85.16-1.29.16H13.72c-3.06,0-5.54-2.35-5.54-5.26v-3.15c0-2.9,2.48-5.26,5.54-5.26h44.72c.45,0,.88.06,1.29.16-2.43.56-4.25,2.62-4.25,5.1Z"/>
        <path class="cls-5" d="M81.25,133.72v3.15c0,2.48,1.82,4.55,4.25,5.1-.42.09-.84.16-1.29.16h-44.72c-3.06,0-5.54-2.35-5.54-5.26v-3.15c0-2.9,2.48-5.26,5.54-5.26h44.72c.45,0,.88.06,1.29.16-2.43.56-4.25,2.62-4.25,5.1Z"/>
        <path class="cls-14" d="M85.5,141.97c-.42.09-.84.16-1.29.16h-44.72c-3.06,0-5.54-2.35-5.54-5.26v-3.15c0-2.9,2.48-5.26,5.54-5.26h44.72c.45,0,.88.06,1.29.16"/>
      </g>
      <g>
        <path class="cls-8" d="M37.84,115.24v5.96c0,2.54-1.9,4.67-4.44,5.15.36.07.73.11,1.11.11h48.41c3.06,0,5.54-2.35,5.54-5.26v-5.96c0-2.91-2.48-5.26-5.54-5.26h-48.41c-.38,0-.75.04-1.11.11,2.53.49,4.44,2.61,4.44,5.15h0Z"/>
        <path class="cls-9" d="M33.78,115.24v5.96c0,2.54-1.91,4.67-4.43,5.15.36.07.73.11,1.11.11h48.41c3.06,0,5.54-2.35,5.54-5.26v-5.96c0-2.91-2.48-5.26-5.54-5.26H30.46c-.38,0-.75.04-1.11.11,2.53.49,4.43,2.61,4.43,5.15h0Z"/>
        <path class="cls-9" d="M26.39,115.24v5.96c0,2.54-1.9,4.67-4.43,5.15.36.07.73.11,1.11.11h48.41c3.06,0,5.54-2.35,5.54-5.26v-5.96c0-2.91-2.48-5.26-5.54-5.26H23.07c-.38,0-.75.04-1.11.11,2.53.49,4.43,2.61,4.43,5.15h0Z"/>
        <path class="cls-8" d="M19.37,115.24v5.96c0,2.54-1.9,4.67-4.43,5.15.36.07.73.11,1.11.11h48.41c3.06,0,5.54-2.35,5.54-5.26v-5.96c0-2.91-2.48-5.26-5.54-5.26H16.05c-.38,0-.75.04-1.11.11,2.53.49,4.43,2.61,4.43,5.15h0Z"/>
        <path class="cls-2" d="M13.08,115.24v5.96c0,2.54-1.91,4.67-4.43,5.15.36.07.73.11,1.11.11h48.41c3.06,0,5.54-2.35,5.54-5.26v-5.96c0-2.91-2.48-5.26-5.54-5.26H9.76c-.38,0-.75.04-1.11.11,2.53.49,4.43,2.61,4.43,5.15h0Z"/>
        <path class="cls-10" d="M8.65,126.35c.36.07.73.11,1.11.11h48.41c3.06,0,5.54-2.35,5.54-5.26v-5.96c0-2.91-2.48-5.26-5.54-5.26H9.76c-.38,0-.75.04-1.11.11"/>
      </g>
      <g>
        <path class="cls-11" d="M43.51,148.55c0,2.18-1.8,3.96-4.07,4.09.09,0,.18.03.28.03h54.14c2.4,0,4.34-1.84,4.34-4.12s-1.94-4.12-4.34-4.12h-54.14c-.09,0-.18.02-.28.03,2.27.14,4.07,1.91,4.07,4.09h0Z"/>
        <path class="cls-2" d="M30.21,148.55c0,2.18-1.8,3.96-4.07,4.09.09,0,.18.03.28.03h54.14c2.4,0,4.34-1.84,4.34-4.12s-1.94-4.12-4.34-4.12H26.42c-.1,0-.18.02-.28.03,2.27.14,4.07,1.91,4.07,4.09h0Z"/>
        <path class="cls-13" d="M26.14,152.64c.09,0,.18.03.28.03h54.14c2.4,0,4.34-1.84,4.34-4.12s-1.94-4.12-4.34-4.12H26.42c-.1,0-.18.02-.28.03"/>
      </g>
      <g>
        <path class="cls-3" d="M119.37,147.9c.19,1.18-.66,2.28-1.9,2.47l-15.4,2.28c-1.24.18-2.41-.62-2.6-1.8l-11.45-69.64c-.19-1.18.66-2.28,1.9-2.47l15.4-2.28c1.24-.19,2.4.62,2.6,1.8l11.45,69.64Z"/>
        <g class="cls-18">
          <g>
            <path class="cls-1" d="M117.7,87.42c.19,1.18-.66,2.28-1.9,2.47l-30.85,4.57c-1.24.18-2.41-.62-2.6-1.8l-.77-4.66c-.19-1.18.66-2.28,1.9-2.47l30.85-4.57c1.24-.18,2.41.62,2.6,1.8l.77,4.66Z"/>
            <path class="cls-1" d="M126.39,140.21c.19,1.18-.66,2.28-1.9,2.47l-30.86,4.57c-1.24.18-2.4-.62-2.6-1.8l-.77-4.66c-.19-1.18.66-2.28,1.9-2.47l30.85-4.57c1.24-.18,2.41.62,2.6,1.8l.77,4.66h0Z"/>
          </g>
        </g>
      </g>
      <polygon class="cls-1" points="47 36.42 47 45.52 44.95 43.88 42.91 45.52 42.91 36.42 47 36.42"/>
      <g>
        <path class="cls-1" d="M120.31,150.99c.19,1.09,1.22,1.82,2.31,1.64l7.82-1.33c1.09-.19,1.82-1.22,1.64-2.31l-10.23-60.08c-.19-1.09-1.22-1.82-2.31-1.64l-7.82,1.33c-1.09.19-1.82,1.22-1.64,2.31l10.23,60.08h0Z"/>
        <g class="cls-17">
          <g>
            <rect class="cls-3" x="121.91" y="101.29" width="3" height="41.51" transform="translate(-18.75 22.46) rotate(-9.67)"/>
            <rect class="cls-3" x="119.22" y="115.93" width="2" height="27.52" transform="translate(-20.06 22.01) rotate(-9.66)"/>
          </g>
        </g>
      </g>
      <g>
        <path class="cls-7" d="M136.9,149.99c.37,1.47,1.86,2.37,3.33,2l8.5-2.13c1.47-.37,2.37-1.86,2-3.34l-17.58-70.12c-.37-1.47-1.86-2.37-3.34-2l-8.5,2.13c-1.47.37-2.37,1.86-2,3.34l17.58,70.12h.01Z"/>
        <g class="cls-16">
          <g>
            <path class="cls-11" d="M119.11,91.18c.28,1.1,1.4,1.78,2.5,1.5l15.67-3.93c1.1-.28,1.78-1.4,1.5-2.5h0c-.28-1.11-1.4-1.78-2.5-1.5l-15.67,3.93c-1.11.28-1.78,1.4-1.5,2.5h0Z"/>
            <path class="cls-11" d="M123.2,107.49c.28,1.1,1.4,1.78,2.5,1.5l15.67-3.93c1.1-.28,1.77-1.4,1.5-2.5h0c-.28-1.1-1.4-1.78-2.5-1.5l-15.67,3.93c-1.1.28-1.78,1.4-1.5,2.5h0Z"/>
            <path class="cls-11" d="M127.29,123.81c.28,1.11,1.4,1.78,2.5,1.5l15.67-3.93c1.1-.28,1.77-1.4,1.5-2.5h0c-.28-1.1-1.4-1.78-2.5-1.5l-15.67,3.93c-1.1.28-1.78,1.4-1.5,2.5h0Z"/>
            <path class="cls-11" d="M131.38,140.12c.28,1.11,1.4,1.78,2.5,1.5l15.67-3.93c1.1-.28,1.78-1.4,1.5-2.5h0c-.28-1.1-1.4-1.77-2.5-1.5l-15.67,3.93c-1.1.28-1.78,1.4-1.5,2.5h0Z"/>
          </g>
        </g>
      </g>
      <g>
        <path class="cls-15" d="M183.7,158.52c1.09-.78.8-1.5-.65-1.61l-89.14-6.23c-1.45-.1-3.53.45-4.63,1.24l-44.67,31.94c-1.09.78-.8,1.5.65,1.61l35.83,2.5c5.52,0,5.59,2.56,10.53,2.56,4.16,0,6.44-1.37,7.89-1.27l34.89,2.44c1.45.1,3.54-.46,4.63-1.24l44.67-31.94h0Z"/>
        <path class="cls-5" d="M178.58,158.88l-.43-5.13-30.74.3-12.2,2.25-2.65-3.28-33.85-2.37-5.99,2.09-42.38,26.22-.35,4.34,37.33,2.61c.53.84,2,1.44,4.32,1.6s5.05-.14,7.63-.77l36.74,2.57,42.57-30.44h0Z"/>
        <g>
          <path class="cls-2" d="M132.12,150.65l-3.17-.21-2.03-.14-31.98-2.16-44.6,30.84,31.98,2.16,3.03.2,2.17.15c2.45.16,4.83.54,4.83,3.1l28.08-22.49,10.09-6.97,2.76-1.91c1.81-1.25,1.3-2.4-1.15-2.57h0Z"/>
          <path class="cls-2" d="M140.97,151.24l3.17.21,2.03.14,31.98,2.16-44.6,30.84s-27.34-1.97-31.98-2.16c-4.64-.18-7.41.9-9.23,2.15l28.08-22.49,10.09-6.97,2.76-1.91c1.81-1.25,5.26-2.13,7.71-1.97h0Z"/>
        </g>
        <line class="cls-12" x1="93.14" y1="153.2" x2="120.42" y2="155.11"/>
        <line class="cls-12" x1="90.32" y1="155.22" x2="117.6" y2="157.12"/>
        <line class="cls-12" x1="87.51" y1="157.23" x2="114.79" y2="159.14"/>
        <line class="cls-12" x1="83.68" y1="159.79" x2="110.96" y2="161.7"/>
        <line class="cls-12" x1="80.86" y1="161.81" x2="108.15" y2="163.71"/>
        <line class="cls-12" x1="78.05" y1="163.82" x2="105.33" y2="165.73"/>
        <line class="cls-12" x1="74.67" y1="166.09" x2="101.95" y2="168"/>
        <line class="cls-12" x1="71.85" y1="168.11" x2="99.13" y2="170.01"/>
        <line class="cls-12" x1="68.95" y1="170.47" x2="85.57" y2="171.63"/>
        <line class="cls-12" x1="134.84" y1="156.17" x2="162.12" y2="158.08"/>
        <line class="cls-12" x1="132.02" y1="158.18" x2="159.3" y2="160.09"/>
        <line class="cls-12" x1="129.21" y1="160.2" x2="156.49" y2="162.1"/>
        <line class="cls-12" x1="125.38" y1="162.76" x2="152.66" y2="164.67"/>
        <line class="cls-12" x1="122.57" y1="164.77" x2="149.85" y2="166.68"/>
        <line class="cls-12" x1="119.75" y1="166.79" x2="147.03" y2="168.69"/>
        <line class="cls-12" x1="116.37" y1="169.06" x2="143.65" y2="170.97"/>
        <line class="cls-12" x1="113.55" y1="171.07" x2="140.84" y2="172.98"/>
        <line class="cls-12" x1="110.66" y1="173.44" x2="127.27" y2="174.6"/>
      </g>
    </g>
  </g>
</svg>